<svg width="34" height="30" viewBox="0 0 34 30" fill="none" xmlns="http://www.w3.org/2000/svg">
<path d="M25.1419 16.9396C22.8544 14.1776 19.9629 12.6565 17 12.6565C14.0371 12.6565 11.1456 14.1776 8.85813 16.9396C6.80193 19.4222 5.57448 22.551 5.57448 25.3091C5.57448 26.6489 5.98407 27.6694 6.79184 28.3424C7.58911 29.0068 8.64172 29.2315 9.81604 29.2314C11.0656 29.2314 12.4531 28.977 13.8164 28.7269C15.0076 28.5083 16.1328 28.3019 17.0001 28.3019C17.7486 28.3019 18.804 28.4978 19.9212 28.7052C22.532 29.19 25.4914 29.7393 27.2009 28.3179C28.0135 27.6423 28.4256 26.6299 28.4256 25.3091C28.4257 22.551 27.1981 19.4222 25.1419 16.9396ZM25.9272 26.7861C24.9362 27.6101 22.3571 27.1313 20.2847 26.7466C19.0747 26.5219 17.9318 26.3098 16.9999 26.3098C15.9514 26.3098 14.7397 26.5321 13.4568 26.7674C11.4692 27.132 8.99553 27.5858 8.0669 26.812C7.94312 26.7089 7.56647 26.395 7.56647 25.309C7.56647 23.0349 8.64929 20.3147 10.3923 18.2102C12.2945 15.9135 14.6411 14.6486 16.9999 14.6486C19.3586 14.6486 21.7053 15.9135 23.6075 18.2102C25.3505 20.3147 26.4333 23.0349 26.4333 25.309C26.4335 26.3652 26.0524 26.682 25.9272 26.7861Z" fill="white"/>
<path d="M25.3758 1.9419C24.5388 0.707869 23.3403 0.000244141 22.0875 0.000244141C20.8347 0.000244141 19.6363 0.708002 18.7993 1.9419C18.0304 3.07552 17.607 4.56421 17.607 6.13379C17.607 7.70337 18.0304 9.19206 18.7993 10.3257C19.6363 11.5596 20.8348 12.2674 22.0875 12.2674C23.3403 12.2674 24.5388 11.5596 25.3758 10.3257C26.1446 9.19206 26.5681 7.70337 26.5681 6.13379C26.5681 4.56421 26.1447 3.07545 25.3758 1.9419ZM23.7271 9.20747C23.4566 9.60624 22.8839 10.2753 22.0875 10.2753C21.2911 10.2753 20.7185 9.60631 20.448 9.20747C19.9085 8.41206 19.5991 7.29172 19.5991 6.13379C19.5991 4.9758 19.9085 3.85553 20.448 3.06011C20.7184 2.66134 21.2911 1.9923 22.0875 1.9923C22.8839 1.9923 23.4566 2.66128 23.7271 3.06011C24.2666 3.85553 24.576 4.97587 24.576 6.13379C24.5759 7.29172 24.2666 8.41206 23.7271 9.20747Z" fill="white"/>
<path d="M15.2007 1.94172C14.3637 0.707691 13.1652 0 11.9124 0C10.6596 0 9.4611 0.707758 8.62418 1.94172C7.85533 3.07534 7.43185 4.56404 7.43185 6.13361C7.43185 7.70319 7.85526 9.19189 8.62418 10.3255C9.46116 11.5595 10.6596 12.2673 11.9124 12.2673C13.1652 12.2673 14.3637 11.5595 15.2007 10.3255C15.9695 9.19189 16.393 7.70326 16.393 6.13361C16.3929 4.56404 15.9695 3.07527 15.2007 1.94172ZM13.5519 9.20736C13.2814 9.60613 12.7087 10.2752 11.9123 10.2752C11.1159 10.2752 10.5433 9.60613 10.2728 9.20736C9.7333 8.41194 9.42391 7.2916 9.42391 6.13368C9.42391 4.97569 9.73336 3.85541 10.2728 3.06C10.5433 2.66123 11.1159 1.99219 11.9123 1.99219C12.7088 1.99219 13.2814 2.66116 13.5519 3.06C14.0913 3.85541 14.4007 4.97575 14.4007 6.13368C14.4007 7.2916 14.0913 8.41194 13.5519 9.20736Z" fill="white"/>
<path d="M33.802 11.5698C33.4646 10.4221 32.7413 9.58807 31.7656 9.22158C30.9804 8.92667 30.0941 8.97667 29.2699 9.36243C28.134 9.89394 27.2056 10.9915 26.7228 12.3736C26.3283 13.5031 26.2791 14.6968 26.5844 15.7352C26.9218 16.883 27.645 17.717 28.6208 18.0835C28.9584 18.2103 29.3147 18.2734 29.6768 18.2734C30.1567 18.2734 30.6468 18.1625 31.1166 17.9427C32.2525 17.4111 33.1809 16.3136 33.6636 14.9315V14.9315C34.0581 13.8021 34.1073 12.6082 33.802 11.5698ZM31.7829 14.2745C31.4804 15.1405 30.9156 15.8372 30.2722 16.1383C30.0356 16.249 29.6786 16.3528 29.3212 16.2185C28.4587 15.8945 28.1233 14.4048 28.6034 13.0306C28.9059 12.1646 29.4707 11.4678 30.1142 11.1667C30.271 11.0933 30.4807 11.023 30.7084 11.023C30.8242 11.023 30.9447 11.0412 31.065 11.0864C31.9275 11.4105 32.263 12.9002 31.7829 14.2745Z" fill="white"/>
<path d="M7.27721 12.3735C6.79437 10.9914 5.86595 9.89391 4.73013 9.3624C3.90583 8.97664 3.01944 8.92671 2.23432 9.22155C1.25855 9.58811 0.535318 10.4221 0.197908 11.5698C-0.107362 12.6082 -0.0581548 13.802 0.336365 14.9314V14.9315C0.819271 16.3136 1.74763 17.4111 2.88344 17.9426C3.35333 18.1625 3.84335 18.2733 4.32326 18.2733C4.68531 18.2733 5.04165 18.2102 5.37926 18.0835C6.35516 17.7169 7.07833 16.8829 7.41574 15.7352C7.72087 14.6969 7.67167 13.503 7.27721 12.3735ZM4.67867 16.2186C4.32134 16.3528 3.96434 16.249 3.7278 16.1383C3.08439 15.8373 2.51954 15.1405 2.21706 14.2745V14.2746C1.73701 12.9003 2.07242 11.4106 2.93491 11.0866C3.29217 10.9524 3.64924 11.0562 3.88585 11.1668C4.52932 11.4679 5.09411 12.1647 5.39659 13.0306C5.87664 14.4049 5.54115 15.8946 4.67867 16.2186Z" fill="white"/>
</svg>
