<svg width="30" height="30" viewBox="0 0 30 30" fill="none" xmlns="http://www.w3.org/2000/svg">
<path d="M1.96304 2.15154L18.0254 6.162C19.96 6.64533 21.5417 8.67171 21.5417 10.6667V25.1667C21.5417 27.1604 19.9539 28.4171 18.0133 27.9603L4.52833 24.7897C2.58775 24.3317 1 22.3271 1 20.3333V4.625C1 2.63004 2.63125 1 4.625 1H25.1667C27.1604 1 28.7917 2.63004 28.7917 4.625V17.9167C28.7917 19.9104 27.1604 21.5417 25.1667 21.5417H21.5417" stroke="white" stroke-width="2" stroke-miterlimit="10" stroke-linecap="round" stroke-linejoin="round"/>
<path d="M11.875 4.625H23.9583" stroke="white" stroke-width="2" stroke-miterlimit="10" stroke-linecap="round" stroke-linejoin="round"/>
<path d="M16.1042 19.125C17.4389 19.125 18.5208 18.043 18.5208 16.7083C18.5208 15.3736 17.4389 14.2916 16.1042 14.2916C14.7695 14.2916 13.6875 15.3736 13.6875 16.7083C13.6875 18.043 14.7695 19.125 16.1042 19.125Z" stroke="white" stroke-width="2" stroke-miterlimit="10" stroke-linecap="round" stroke-linejoin="round"/>
<path d="M21.5417 10.6666H23.9584" stroke="white" stroke-width="2" stroke-miterlimit="10" stroke-linecap="round" stroke-linejoin="round"/>
</svg>
